<?xml version="1.0" encoding="UTF-8"?>
<svg id="_레이어_1" data-name="레이어 1" xmlns="http://www.w3.org/2000/svg" viewBox="0 0 24 24">
  <defs>
    <style>
      .cls-1 {
        fill: #fff;
        stroke-width: 0px;
      }
    </style>
  </defs>
  <path class="cls-1" d="m9.85,8.42c-.37-.15-.77-.21-1.18-.2-.26,0-.49,0-.68.01-.2-.01-.34,0-.41.01v3.36c.14.01.27.02.39.02h.53c.39,0,.78-.06,1.15-.18.32-.09.6-.28.82-.53.21-.25.31-.59.31-1.03.01-.31-.07-.62-.23-.89-.17-.26-.41-.46-.7-.57ZM19.75.3H4.25C1.9.3,0,2.2,0,4.55v14.9c0,2.35,1.9,4.25,4.25,4.25h15.5c2.35,0,4.25-1.9,4.25-4.25V4.55c0-2.35-1.9-4.25-4.25-4.25Zm-7.39,11.65c-.4.56-.96.98-1.61,1.22-.68.25-1.43.34-2.25.34-.24,0-.4,0-.5-.01s-.24-.01-.43-.01v3.21c.01.07-.04.13-.11.14h-1.94c-.08,0-.12-.04-.12-.13V6.42c0-.07.03-.11.1-.11.17,0,.33,0,.56-.01.24-.01.49-.01.76-.02s.56-.01.87-.02c.31-.01.61-.01.91-.01.82,0,1.5.1,2.06.31.5.17.96.45,1.34.82.32.32.57.71.73,1.14.15.42.23.85.23,1.3,0,.86-.2,1.57-.6,2.13Zm7.09,3.89c-.28.4-.67.71-1.12.89-.49.21-1.09.32-1.81.32-.46,0-.91-.04-1.36-.13-.35-.06-.7-.17-1.02-.32-.07-.04-.12-.11-.11-.19v-1.74s.01-.07.04-.09c.03-.02.06-.01.09.01.39.23.8.39,1.24.49.38.1.78.15,1.18.15.38,0,.65-.05.83-.14.16-.07.27-.24.27-.42,0-.14-.08-.27-.24-.4-.16-.13-.49-.28-.98-.47-.51-.18-.98-.42-1.42-.72-.31-.22-.57-.51-.76-.85-.16-.32-.24-.67-.23-1.02,0-.43.12-.84.34-1.21.25-.4.62-.72,1.05-.92.47-.24,1.06-.35,1.77-.35.41,0,.83.03,1.24.09.3.04.59.12.86.23.04.01.08.05.1.09.01.04.02.08.02.12v1.63s-.02.08-.05.1c-.09.02-.14.02-.18,0-.3-.16-.62-.27-.96-.34-.37-.08-.74-.13-1.12-.13-.2-.01-.41.02-.6.07-.13.03-.24.1-.31.2-.05.08-.08.18-.08.27s.04.18.1.26c.09.11.21.2.34.27.23.12.47.23.71.33.54.18,1.06.43,1.54.73.33.21.6.49.79.83.16.32.24.67.23,1.03.01.47-.13.94-.39,1.33Z"/>
</svg>