<?xml version="1.0" encoding="UTF-8"?>
<svg id="_레이어_1" data-name="레이어 1" xmlns="http://www.w3.org/2000/svg" viewBox="0 0 24 24">
  <defs>
    <style>
      .cls-1 {
        fill: #fff;
        stroke-width: 0px;
      }
    </style>
  </defs>
  <path class="cls-1" d="m10.53,10.73c-.1-.31-.19-.61-.29-.92s-.19-.6-.27-.89c-.08-.28-.15-.54-.22-.78h-.02c-.09.43-.2.86-.34,1.29-.15.48-.3.98-.46,1.48-.14.51-.29.98-.44,1.4h2.54c-.06-.21-.14-.46-.23-.72-.09-.27-.18-.56-.27-.86ZM19.75.3H4.25C1.9.3,0,2.2,0,4.55v14.9c0,2.35,1.9,4.25,4.25,4.25h15.5c2.35,0,4.25-1.9,4.25-4.25V4.55c0-2.35-1.9-4.25-4.25-4.25Zm-5.05,16.53h-2.09c-.07.01-.14-.04-.16-.11l-.82-2.38h-3.72l-.76,2.35c-.02.09-.1.15-.19.14h-1.88c-.11,0-.14-.06-.11-.18l3.22-9.27c.03-.1.06-.21.1-.33.04-.21.06-.43.06-.65-.01-.05.03-.1.08-.11h2.59c.08,0,.12.03.13.08l3.65,10.3c.03.11,0,.16-.1.16Zm3.4-.15c0,.11-.04.16-.13.16h-1.96c-.1,0-.15-.06-.15-.16v-7.7c0-.1.04-.14.13-.14h1.98c.09,0,.13.05.13.14v7.7Zm-.21-9.03c-.23.24-.57.37-.91.35-.33.01-.65-.12-.89-.35-.23-.25-.35-.58-.34-.92-.01-.34.12-.66.36-.89.24-.23.56-.35.89-.35.39,0,.69.12.91.35.22.24.34.56.33.89.01.34-.11.67-.35.92Z"/>
</svg>