<?xml version="1.0" encoding="UTF-8"?>
<svg id="_레이어_1" data-name="레이어 1" xmlns="http://www.w3.org/2000/svg" viewBox="0 0 24 24">
  <defs>
    <style>
      .cls-1 {
        fill: #fff;
        stroke-width: 0px;
      }
    </style>
  </defs>
  <path class="cls-1" d="m15.85,8.98h-4.59V0h4.59c2.48,0,4.49,2.01,4.49,4.49s-2.01,4.49-4.49,4.49Zm-3.12-1.47h3.12c1.66,0,3.02-1.36,3.02-3.02s-1.35-3.02-3.02-3.02h-3.12s0,6.04,0,6.04Zm0,1.47h-4.59c-2.48,0-4.49-2.01-4.49-4.49S5.67,0,8.15,0h4.59v8.98h0ZM8.15,1.47c-1.66,0-3.02,1.36-3.02,3.02s1.35,3.02,3.02,3.02h3.12V1.47s-3.12,0-3.12,0Zm4.59,15.02h-4.59c-2.48,0-4.49-2.01-4.49-4.49s2.01-4.49,4.49-4.49h4.59v8.98h0Zm-4.59-7.51c-1.66,0-3.02,1.36-3.02,3.02s1.36,3.02,3.02,3.02h3.12v-6.04h-3.12Zm.02,15.02c-2.49,0-4.51-2.01-4.51-4.49s2.01-4.49,4.49-4.49h4.59v4.44c0,2.5-2.05,4.54-4.56,4.54Zm-.02-7.51c-1.67,0-3.02,1.35-3.02,3.02,0,1.67,1.36,3.02,3.04,3.02s3.09-1.38,3.09-3.07v-2.97h-3.12Zm7.7,0h-.1c-2.48,0-4.49-2.01-4.49-4.49s2.01-4.49,4.49-4.49h.1c2.48,0,4.49,2.01,4.49,4.49s-2.01,4.49-4.49,4.49Zm-.1-7.51c-1.66,0-3.02,1.36-3.02,3.02s1.36,3.02,3.02,3.02h.1c1.66,0,3.02-1.36,3.02-3.02s-1.35-3.02-3.02-3.02c0,0-.1,0-.1,0Z"/>
</svg>