<?xml version="1.0" encoding="UTF-8"?>
<svg id="_레이어_1" data-name="레이어 1" xmlns="http://www.w3.org/2000/svg" viewBox="0 0 24 24">
  <defs>
    <style>
      .cls-1 {
        fill: #fff;
        stroke-width: 0px;
      }
    </style>
  </defs>
  <path class="cls-1" d="m0,0h24v24H0V0Zm22.03,18.28c-.17-1.09-.89-2.01-3-2.87-.74-.35-1.55-.59-1.8-1.14-.09-.33-.1-.51-.05-.7.15-.65.92-.84,1.51-.66.39.12.75.42.98.9q1.03-.68,1.75-1.12c-.27-.42-.4-.6-.59-.78-.63-.7-1.47-1.06-2.83-1.03l-.7.09c-.68.16-1.32.52-1.71,1.01-1.14,1.29-.81,3.54.57,4.47,1.36,1.02,3.36,1.24,3.62,2.2.24,1.17-.87,1.55-1.97,1.41-.81-.18-1.26-.59-1.75-1.34l-1.83,1.05c.21.48.45.69.81,1.11,1.74,1.76,6.09,1.67,6.87-1,.03-.09.24-.7.07-1.65,0,0,.05.07.05.07Zm-8.98-7.24h-2.25c0,1.94,0,3.86,0,5.8,0,1.23.06,2.36-.14,2.71-.33.69-1.18.6-1.57.48-.4-.2-.6-.47-.83-.85-.06-.1-.11-.2-.13-.2l-1.82,1.12c.3.63.75,1.17,1.32,1.52.86.51,2,.67,3.21.41.78-.23,1.46-.69,1.81-1.41.51-.93.4-2.07.4-3.35.01-2.05,0-4.11,0-6.18,0,0,0-.06,0-.06Z"/>
</svg>