<?xml version="1.0" encoding="UTF-8"?>
<svg id="_레이어_1" data-name="레이어 1" xmlns="http://www.w3.org/2000/svg" viewBox="0 0 24 24">
  <defs>
    <style>
      .cls-1 {
        fill: #fff;
        stroke-width: 0px;
      }
    </style>
  </defs>
  <path class="cls-1" d="m11.57,0c-.18,0-.31,0-.36,0-.05,0-.22.02-.36.03C7.44.35,4.25,2.19,2.23,5.01,1.1,6.58.38,8.37.11,10.26.01,10.91,0,11.11,0,12s.01,1.09.11,1.75c.65,4.51,3.86,8.29,8.21,9.69.78.25,1.6.42,2.53.53.36.04,1.94.04,2.3,0,1.61-.18,2.98-.58,4.32-1.26.21-.11.25-.13.22-.16-.02-.01-.9-1.19-1.95-2.62l-1.92-2.59-2.4-3.56c-1.32-1.96-2.41-3.56-2.42-3.56,0,0-.02,1.58-.02,3.51,0,3.38,0,3.52-.05,3.6-.06.11-.11.16-.21.21-.07.04-.14.04-.49.04h-.41l-.11-.07c-.07-.04-.12-.1-.16-.17l-.05-.11v-4.7s.01-4.71.01-4.71l.07-.09s.12-.11.17-.14c.1-.05.13-.05.54-.05.48,0,.56.02.68.15.04.04,1.34,2,2.89,4.36,1.58,2.39,3.16,4.78,4.73,7.17l1.9,2.88.1-.06c.85-.55,1.75-1.34,2.47-2.16,1.52-1.74,2.5-3.87,2.82-6.13.1-.66.11-.85.11-1.75s-.01-1.09-.11-1.75c-.65-4.51-3.86-8.29-8.21-9.69-.77-.25-1.58-.42-2.5-.52C13.02.02,12.1,0,11.57,0h0Zm4.07,7.22c.35,0,.41,0,.49.05.11.06.2.16.24.28.02.06.02,1.37.02,4.3v4.22s-.75-1.14-.75-1.14l-.75-1.14v-3.07c0-1.98,0-3.1.02-3.15.04-.13.12-.23.23-.3.1-.05.13-.05.5-.05h0Z"/>
</svg>