<?xml version="1.0" encoding="UTF-8"?>
<svg id="_레이어_1" data-name="레이어 1" xmlns="http://www.w3.org/2000/svg" viewBox="0 0 24 24">
  <defs>
    <style>
      .cls-1 {
        fill: #fff;
        stroke-width: 0px;
      }
    </style>
  </defs>
  <path class="cls-1" d="m12,0c6.63,0,12,5.37,12,12s-5.37,12-12,12S0,18.63,0,12,5.37,0,12,0Zm-2.39,16c.18.64.16,1.25-.02,1.79l-.06.18c-.02.06-.05.12-.08.18-.14.29-.33.56-.56.81-.7.76-1.67,1.05-2.09.81-.45-.26-.23-1.33.58-2.19.87-.92,2.12-1.51,2.12-1.51h0s.11-.06.11-.06Zm9.91-10.86c-.54-2.13-4.08-2.83-7.42-1.64-1.99.71-4.14,1.82-5.69,3.27-1.84,1.72-2.14,3.22-2.02,3.85.43,2.21,3.46,3.66,4.7,4.73h0c-.37.19-3.06,1.53-3.69,2.93-.68,1.47.11,2.52.61,2.66,1.57.44,3.19-.36,4.07-1.65.84-1.26.77-2.88.4-3.68.5-.14,1.08-.19,1.83-.1,2.1.24,2.52,1.56,2.43,2.1-.09.54-.52.85-.67.94-.15.09-.19.12-.18.18.02.09.09.09.21.08.16-.03,1.1-.45,1.14-1.47.05-1.29-1.19-2.73-3.38-2.7-.9.02-1.47.09-1.88.26-.03-.05-.06-.07-.1-.1-1.35-1.45-3.86-2.48-3.75-4.41.03-.7.28-2.56,4.8-4.81,3.7-1.85,6.66-1.34,7.17-.21.73,1.6-1.58,4.59-5.43,5.02-1.47.16-2.23-.4-2.43-.61-.21-.23-.24-.24-.31-.19-.12.06-.05.26,0,.38.12.3.59.82,1.4,1.1.7.23,2.43.36,4.5-.45,2.32-.9,4.14-3.4,3.61-5.51,0,0,.07.07.07.07Z"/>
</svg>