<?xml version="1.0" encoding="UTF-8"?>
<svg id="_레이어_1" data-name="레이어 1" xmlns="http://www.w3.org/2000/svg" viewBox="0 0 24 24">
  <defs>
    <style>
      .cls-1 {
        fill: #fff;
        stroke-width: 0px;
      }
    </style>
  </defs>
  <path class="cls-1" d="m12,4.8c-3.2,0-5.2,1.6-6,4.8,1.2-1.6,2.6-2.2,4.2-1.8.91.23,1.57.89,2.29,1.62,1.18,1.19,2.54,2.58,5.51,2.58,3.2,0,5.2-1.6,6-4.8-1.2,1.6-2.6,2.2-4.2,1.8-.91-.23-1.57-.89-2.29-1.62-1.18-1.19-2.54-2.58-5.51-2.58Zm-6,7.2C2.8,12,.8,13.6,0,16.8c1.2-1.6,2.6-2.2,4.2-1.8.91.23,1.57.89,2.29,1.62,1.18,1.19,2.54,2.58,5.51,2.58,3.2,0,5.2-1.6,6-4.8-1.2,1.6-2.6,2.2-4.2,1.8-.91-.23-1.56-.89-2.29-1.62-1.18-1.19-2.54-2.58-5.51-2.58Z"/>
</svg>