<?xml version="1.0" encoding="UTF-8"?>
<svg id="_레이어_1" data-name="레이어 1" xmlns="http://www.w3.org/2000/svg" viewBox="0 0 24 24">
  <defs>
    <style>
      .cls-1 {
        fill: #fff;
        stroke-width: 0px;
      }
    </style>
  </defs>
  <path class="cls-1" d="m1.12,0C.5,0,0,.5,0,1.12v21.75c0,.62.5,1.12,1.12,1.12h21.75c.62,0,1.12-.5,1.12-1.12V1.12c0-.62-.5-1.12-1.12-1.12H1.12Zm17.36,9.75c.61,0,1.15.04,1.63.11.45.07.88.18,1.31.34v2.46c-.2-.14-.42-.26-.64-.36-.23-.1-.47-.19-.72-.26-.46-.13-.94-.2-1.43-.2-.3,0-.57.03-.82.09-.22.05-.43.13-.62.24-.17.1-.3.23-.39.37-.09.15-.14.32-.14.49,0,.2.05.37.16.53.1.16.25.3.44.44s.42.28.7.41c.27.14.58.27.93.42.47.2.89.41,1.27.63.37.22.69.47.96.75.27.28.47.6.61.96.14.36.21.78.21,1.25,0,.66-.12,1.21-.37,1.66-.24.44-.59.81-1.01,1.09-.45.29-.96.49-1.49.6-.57.12-1.16.18-1.79.18-.62,0-1.23-.05-1.84-.16-.53-.09-1.03-.26-1.51-.49v-2.63c.9.77,2.05,1.19,3.24,1.2.33,0,.62-.03.87-.09.25-.06.46-.14.62-.25.17-.11.29-.23.37-.38.19-.35.16-.77-.07-1.09-.15-.2-.33-.37-.54-.5-.26-.17-.53-.32-.81-.44-.33-.15-.67-.3-1.01-.44-.92-.38-1.6-.85-2.05-1.4-.45-.55-.68-1.22-.68-2.01,0-.61.12-1.14.37-1.58s.58-.8,1-1.09c.45-.3.95-.51,1.47-.63.58-.14,1.17-.2,1.77-.2Zm-15.11.19h9.56v2.17h-3.43v9.65h-2.72v-9.65h-3.41v-2.17Z"/>
</svg>