<?xml version="1.0" encoding="UTF-8"?>
<svg id="_레이어_1" data-name="레이어 1" xmlns="http://www.w3.org/2000/svg" viewBox="0 0 24 24">
  <defs>
    <style>
      .cls-1 {
        fill: #fff;
        stroke-width: 0px;
      }
    </style>
  </defs>
  <path class="cls-1" d="m22.2,18.5l-9.77,5.5v-4.29l6.09-3.33,3.68,2.12h0Zm.67-.6V6.39l-3.58,2.05v7.4l3.58,2.06Zm-21.07.6l9.77,5.5v-4.29l-6.09-3.33-3.68,2.12h0Zm-.67-.6V6.39l3.58,2.05v7.4l-3.58,2.06Zm.42-12.25L11.57,0v4.14l-6.42,3.52-.05.03-3.55-2.04Zm20.9,0L12.43,0v4.14l6.42,3.52.05.03,3.55-2.04h0Zm-10.88,13.1l-6.01-3.29v-6.51l6.01,3.45v6.35h0Zm.86,0l6.01-3.29v-6.51l-6.01,3.45v6.35Zm-6.46-10.56l6.03-3.3,6.03,3.3-6.03,3.47-6.03-3.47Z"/>
</svg>